<svg width="29" height="31" viewBox="0 0 29 31" fill="none" xmlns="http://www.w3.org/2000/svg">
<path fill-rule="evenodd" clip-rule="evenodd" d="M13.2055 26.9007V4.09925C13.2055 3.82325 13.4292 3.59925 13.7048 3.59925C13.9803 3.59925 14.204 3.82325 14.204 4.09925V5.12644H19.3797V4.124C18.4675 3.89963 17.79 3.0745 17.79 2.09212C17.79 0.937437 18.726 0 19.8789 0C21.0318 0 21.9678 0.937437 21.9678 2.09212C21.9678 3.0745 21.2904 3.89963 20.3781 4.124V5.62644C20.3781 5.75905 20.3255 5.88622 20.2319 5.97999C20.1383 6.07376 20.0113 6.12644 19.8789 6.12644H14.204V8.26469H18.2791C18.5032 7.35113 19.327 6.67256 20.3079 6.67256C21.4608 6.67256 22.3969 7.61006 22.3969 8.76469C22.3969 9.91938 21.4608 10.8568 20.3079 10.8568C19.327 10.8568 18.5032 10.1783 18.2791 9.26469H14.204V11.4061H22.1139L25.1768 8.33856C24.9451 7.99404 24.8215 7.58796 24.8221 7.17256C24.8221 6.01794 25.7581 5.08044 26.9111 5.08044C28.064 5.08044 29 6.01794 29 7.17256C29 8.32725 28.064 9.26469 26.9111 9.26469C26.5636 9.26519 26.2215 9.17842 25.9162 9.01231L22.6737 12.2597C22.6273 12.3061 22.5723 12.3429 22.5117 12.3681C22.4511 12.3932 22.3862 12.4061 22.3207 12.4061H14.204V14.9455H23.3067C23.5497 14.0596 24.3601 13.4079 25.3214 13.4079C26.4743 13.4079 27.4103 14.3453 27.4103 15.5C27.4103 16.6547 26.4743 17.5921 25.3214 17.5921C24.3211 17.5921 23.4841 16.8864 23.28 15.9455H14.204V18.4848H22.3207C22.4531 18.4848 22.5801 18.5375 22.6737 18.6313L25.7988 21.7612C26.1317 21.5508 26.5174 21.4394 26.9111 21.4399C28.064 21.4399 29 22.3774 29 23.5321C29 24.6868 28.064 25.6242 26.9111 25.6242C25.7581 25.6242 24.8221 24.6868 24.8221 23.5321C24.8216 23.1626 24.9193 22.7997 25.1051 22.4806L22.1139 19.4848H14.204V21.4039H18.2883C18.525 20.5086 19.34 19.8478 20.3079 19.8478C21.4608 19.8478 22.3969 20.7853 22.3969 21.9399C22.3969 23.0946 21.4608 24.0321 20.3079 24.0321C19.3142 24.0321 18.4816 23.3356 18.2706 22.4039H14.204V24.3229H19.8789C20.0113 24.3229 20.1383 24.3756 20.2319 24.4693C20.3255 24.5631 20.3781 24.6903 20.3781 24.8229V26.876C21.2904 27.1004 21.9678 27.9255 21.9678 28.9079C21.9678 30.0626 21.0318 31 19.8789 31C18.726 31 17.79 30.0626 17.79 28.9079C17.79 27.9255 18.4675 27.1004 19.3797 26.876V25.3229H14.204V26.9007C14.204 27.1767 13.9803 27.4007 13.7048 27.4007C13.4292 27.4007 13.2055 27.1767 13.2055 26.9007ZM19.8789 3.18425C20.4807 3.18425 20.9693 2.69487 20.9693 2.09212C20.9693 1.48937 20.4807 1 19.8789 1C19.2771 1 18.7884 1.48937 18.7884 2.09212C18.7884 2.69487 19.2771 3.18425 19.8789 3.18425ZM19.2175 8.76469C19.2175 9.3675 19.7061 9.85681 20.3079 9.85681C20.9098 9.85681 21.3984 9.3675 21.3984 8.76469C21.3984 8.16194 20.9098 7.67256 20.3079 7.67256C19.7061 7.67256 19.2175 8.16194 19.2175 8.76469ZM26.1945 7.9955C26.3928 8.16934 26.6475 8.26502 26.9111 8.26469C27.5129 8.26469 28.0015 7.77538 28.0015 7.17256C28.0015 6.56981 27.5129 6.08044 26.9111 6.08044C26.3092 6.08044 25.8206 6.56981 25.8206 7.17256C25.8205 7.32567 25.8526 7.47708 25.9148 7.61693C25.977 7.75678 26.068 7.88192 26.1817 7.98419L26.1945 7.9955ZM26.1175 22.7833C25.9265 22.9857 25.8203 23.2536 25.8206 23.5321C25.8206 24.1348 26.3092 24.6242 26.9111 24.6242C27.5129 24.6242 28.0015 24.1348 28.0015 23.5321C28.0015 22.9293 27.5129 22.4399 26.9111 22.4399C26.7624 22.4398 26.6152 22.4702 26.4787 22.5292C26.3422 22.5883 26.2193 22.6748 26.1175 22.7833ZM19.8789 27.8158C19.2771 27.8158 18.7884 28.3051 18.7884 28.9079C18.7884 29.5106 19.2771 30 19.8789 30C20.4807 30 20.9693 29.5106 20.9693 28.9079C20.9693 28.3051 20.4807 27.8158 19.8789 27.8158ZM20.3079 20.8478C19.7061 20.8478 19.2175 21.3372 19.2175 21.9399C19.2175 22.5427 19.7061 23.0321 20.3079 23.0321C20.9098 23.0321 21.3984 22.5427 21.3984 21.9399C21.3984 21.3372 20.9098 20.8478 20.3079 20.8478ZM25.3214 14.4079C24.7195 14.4079 24.2309 14.8972 24.2309 15.5C24.2309 16.1028 24.7195 16.5921 25.3214 16.5921C25.9232 16.5921 26.4118 16.1028 26.4118 15.5C26.4118 14.8972 25.9232 14.4079 25.3214 14.4079ZM0 13.05C0 11.8598 0.753909 10.8271 1.8063 10.4256C2.01866 9.08919 3.18095 8.06656 4.5657 8.06656C4.63335 8.06656 4.70037 8.06894 4.76671 8.07375C5.12971 7.21319 5.91108 6.56919 6.85108 6.40094C7.29109 5.43325 8.26529 4.76019 9.39587 4.76019C10.9317 4.76019 12.1891 6.01919 12.1891 7.55919V13.2032C12.1891 14.1541 11.7149 14.9949 10.99 15.5005C11.7149 16.0057 12.1891 16.8463 12.1891 17.7983V23.4423C12.1891 24.9806 10.9318 26.2398 9.39587 26.2398C8.26517 26.2398 7.29097 25.5676 6.85102 24.6002C5.91102 24.4309 5.12984 23.7869 4.76683 22.9275C4.6999 22.9324 4.63281 22.9349 4.5657 22.9349C3.18107 22.9349 2.01885 21.9109 1.80636 20.5759C0.753971 20.1745 0 19.1433 0 17.9515C0.00149771 18.0561 0.0013729 18.0721 0 17.9515C0 16.9326 0.520391 16.0313 1.309 15.5007C0.520391 14.9702 0 14.0689 0 13.05C0.00187214 13.1544 0.00174733 13.1704 0 13.05ZM2.94774 16.0007C1.87382 16.0007 0.998472 16.8771 0.998472 17.9515V17.9517L0.99841 17.9589C0.99841 18.6126 1.35149 19.1874 1.87538 19.5023C2.03008 18.9517 2.34953 18.4696 2.77613 18.1125C2.87774 18.0275 3.00889 17.9864 3.14075 17.9982C3.27261 18.01 3.39441 18.0738 3.47936 18.1754C3.65603 18.3872 3.62789 18.7028 3.41646 18.8797C3.03723 19.1972 2.7888 19.6679 2.77113 20.1969C2.80358 21.1607 3.60049 21.9349 4.5657 21.9349C4.71279 21.9349 4.8552 21.9159 4.9918 21.8832C5.05569 21.8679 5.12197 21.8653 5.18685 21.8757C5.25172 21.8861 5.3139 21.9093 5.36984 21.9438C5.42577 21.9783 5.47435 22.0235 5.5128 22.0769C5.55124 22.1302 5.5788 22.1906 5.59388 22.2547C5.72249 22.8007 6.10141 23.2532 6.60146 23.4823C6.60126 23.469 6.60116 23.4556 6.60115 23.4423C6.60115 22.734 6.86506 22.0872 7.2974 21.5945C7.38482 21.4949 7.50814 21.4342 7.64025 21.4257C7.77236 21.4171 7.90246 21.4615 8.00194 21.5489C8.20894 21.7311 8.22928 22.0472 8.04744 22.2546C7.76955 22.5713 7.59962 22.987 7.59962 23.4423C7.59962 23.6191 7.62514 23.79 7.6727 23.9514C7.68256 23.9756 7.69054 24.0006 7.69654 24.0264C7.93891 24.7326 8.60839 25.2398 9.39587 25.2398C10.3827 25.2398 11.1906 24.4307 11.1906 23.4423V17.7983C11.1906 16.8052 10.3874 16.0007 9.39587 16.0007C8.70886 16.0007 8.11134 16.3872 7.8103 16.9553C7.68112 17.1991 7.37865 17.2919 7.13527 17.1626C6.89189 17.0332 6.79916 16.7302 6.92834 16.4865C7.02003 16.3136 7.12961 16.1507 7.25527 16.0007H2.94774ZM6.60146 7.51831C6.10141 7.747 5.72249 8.19981 5.59394 8.74662C5.5788 8.81102 5.55105 8.87176 5.5123 8.92534C5.47355 8.97892 5.42457 9.02426 5.3682 9.05874C5.31183 9.09323 5.24919 9.11616 5.1839 9.12623C5.11861 9.13629 5.05198 9.13328 4.98787 9.11738C4.84973 9.08331 4.70796 9.06624 4.5657 9.06656C3.60049 9.06656 2.80358 9.83969 2.77113 10.8046C2.78886 11.3327 3.03766 11.8035 3.41715 12.1223C3.51853 12.2076 3.58196 12.3297 3.59351 12.4617C3.60506 12.5938 3.56378 12.7251 3.47874 12.8267C3.3017 13.0381 2.98655 13.0657 2.77544 12.8884C2.34928 12.5304 2.03027 12.0485 1.87557 11.499C1.35162 11.8138 0.998472 12.3883 0.998472 13.0411V13.0413L0.998347 13.0501L0.998472 13.05C0.998472 14.1243 1.87382 15.0007 2.94774 15.0007H7.25527C7.12959 14.8507 7.02001 14.6879 6.92834 14.5149C6.79916 14.2712 6.89189 13.9683 7.13527 13.8389C7.37865 13.7096 7.68112 13.8024 7.8103 14.0462C8.11134 14.6143 8.70886 15.0007 9.39587 15.0007C10.3874 15.0007 11.1906 14.1951 11.1906 13.2032V7.55919C11.1906 6.5695 10.3829 5.76019 9.39587 5.76019C8.60851 5.76019 7.93916 6.26806 7.69672 6.97444C7.6907 7.00043 7.68258 7.02589 7.67245 7.05056C7.62401 7.21574 7.59949 7.38703 7.59962 7.55919C7.59962 8.01325 7.76961 8.42875 8.04744 8.74544C8.22928 8.95275 8.20894 9.26894 8.00194 9.45106C7.90246 9.53854 7.77236 9.58288 7.64025 9.57434C7.50814 9.5658 7.38482 9.50507 7.2974 9.4055C6.865 8.91269 6.60115 8.26575 6.60115 7.55919C6.60115 7.5455 6.60127 7.53187 6.60146 7.51831ZM8.66037 19.0571C8.86044 18.8674 9.17665 18.876 9.36611 19.0764C9.55557 19.2767 9.54695 19.5935 9.34688 19.7833C8.66493 20.4301 7.67532 20.7178 6.70131 20.4554C5.62315 20.1673 4.863 19.2836 4.67485 18.2527C4.65111 18.1223 4.68004 17.9877 4.7553 17.8786C4.83055 17.7695 4.94596 17.6948 5.07617 17.6709C5.20642 17.6472 5.34076 17.6762 5.44968 17.7515C5.55859 17.8269 5.63317 17.9425 5.65703 18.0729C5.77797 18.7354 6.26579 19.304 6.95866 19.4891L6.95966 19.4894C7.58627 19.6582 8.22211 19.4728 8.66037 19.0571ZM9.34688 11.2912C9.54695 11.4809 9.55557 11.7976 9.36611 11.998C9.17665 12.1984 8.86044 12.207 8.66037 12.0173C8.22211 11.6016 7.58627 11.4162 6.95966 11.585L6.95866 11.5852C6.26579 11.7704 5.77797 12.339 5.65703 13.0015C5.63316 13.1319 5.55857 13.2475 5.44966 13.3229C5.34074 13.3982 5.20641 13.4272 5.07617 13.4034C4.94596 13.3795 4.83055 13.3048 4.7553 13.1957C4.68004 13.0867 4.65111 12.9521 4.67485 12.8217C4.863 11.7908 5.62315 10.9071 6.70031 10.6193C7.67532 10.3566 8.66493 10.6444 9.34688 11.2912Z" fill="white"/>
</svg>
